<svg width="152" height="20" viewBox="0 0 152 20" fill="none" xmlns="http://www.w3.org/2000/svg">
<path d="M5.59883 19.36C4.70549 19.36 3.97216 19.18 3.39883 18.82C2.82549 18.46 2.45216 17.9667 2.27883 17.34C2.10549 16.7133 2.15883 16 2.43883 15.2L3.11883 13.38C3.35883 12.7267 3.35216 12.1867 3.09883 11.76C2.85883 11.32 2.41883 11.1 1.77883 11.1H0.118828V9.06H1.77883C2.41883 9.06 2.85883 8.84667 3.09883 8.42C3.35216 7.98 3.35883 7.43333 3.11883 6.78L2.43883 4.96C2.15883 4.16 2.10549 3.44667 2.27883 2.82C2.45216 2.19333 2.82549 1.7 3.39883 1.34C3.97216 0.979999 4.70549 0.799999 5.59883 0.799999C5.9455 0.799999 6.27883 0.826666 6.59883 0.879999C6.91883 0.933333 7.2455 1.02 7.57883 1.14L7.17883 3.1C6.97883 3.03333 6.77216 2.98 6.55883 2.94C6.35883 2.9 6.1455 2.88 5.91883 2.88C5.39883 2.89333 5.03883 3.08667 4.83883 3.46C4.63883 3.83333 4.63883 4.3 4.83883 4.86L5.57883 6.86C5.8455 7.62 5.79216 8.3 5.41883 8.9C5.0455 9.5 4.4455 9.89333 3.61883 10.08C4.4455 10.2667 5.0455 10.66 5.41883 11.26C5.79216 11.86 5.8455 12.54 5.57883 13.3L4.83883 15.3C4.63883 15.86 4.63883 16.3267 4.83883 16.7C5.03883 17.0733 5.39883 17.2667 5.91883 17.28C6.1455 17.28 6.35883 17.26 6.55883 17.22C6.77216 17.18 6.97883 17.1267 7.17883 17.06L7.57883 19.02C7.2455 19.14 6.91883 19.2267 6.59883 19.28C6.27883 19.3333 5.9455 19.36 5.59883 19.36Z" fill="url(#paint0_linear_56_88)"/>
<path d="M16.8365 15L12.4965 4.98H14.1365L17.5565 13.08L20.9765 4.98H22.5565L18.2365 15H16.8365ZM28.2774 15.2C27.3308 15.2 26.4641 14.9733 25.6774 14.52C24.9041 14.0533 24.2908 13.4267 23.8374 12.64C23.3841 11.8533 23.1574 10.9733 23.1574 10C23.1574 9.02667 23.3841 8.14667 23.8374 7.36C24.2908 6.57333 24.9041 5.95333 25.6774 5.5C26.4641 5.03333 27.3308 4.8 28.2774 4.8C29.2374 4.8 30.1041 5.03333 30.8774 5.5C31.6508 5.95333 32.2641 6.57333 32.7174 7.36C33.1708 8.14667 33.3974 9.02667 33.3974 10C33.3974 10.9733 33.1708 11.8533 32.7174 12.64C32.2641 13.4267 31.6508 14.0533 30.8774 14.52C30.1041 14.9733 29.2374 15.2 28.2774 15.2ZM28.2774 13.88C28.9574 13.88 29.5708 13.7067 30.1174 13.36C30.6774 13.0133 31.1174 12.5467 31.4374 11.96C31.7708 11.3733 31.9374 10.72 31.9374 10C31.9374 9.26667 31.7708 8.61333 31.4374 8.04C31.1174 7.45333 30.6774 6.98667 30.1174 6.64C29.5708 6.29333 28.9574 6.12 28.2774 6.12C27.5974 6.12 26.9774 6.29333 26.4174 6.64C25.8708 6.98667 25.4308 7.45333 25.0974 8.04C24.7774 8.61333 24.6174 9.26667 24.6174 10C24.6174 10.72 24.7774 11.3733 25.0974 11.96C25.4308 12.5467 25.8708 13.0133 26.4174 13.36C26.9774 13.7067 27.5974 13.88 28.2774 13.88ZM40.0934 15.18C39.1467 15.18 38.2867 14.9533 37.5134 14.5C36.74 14.0333 36.1267 13.4067 35.6734 12.62C35.22 11.8333 34.9934 10.9533 34.9934 9.98C34.9934 9.00667 35.22 8.13333 35.6734 7.36C36.1267 6.57333 36.74 5.94667 37.5134 5.48C38.2867 5.01333 39.1467 4.78 40.0934 4.78C40.8267 4.78 41.5334 4.92 42.2134 5.2C42.8934 5.46667 43.4934 5.85333 44.0134 6.36L43.0734 7.44C42.6734 7.01333 42.2134 6.69333 41.6934 6.48C41.1867 6.25333 40.66 6.14 40.1134 6.14C39.4334 6.14 38.8134 6.31333 38.2534 6.66C37.7067 6.99333 37.2667 7.45333 36.9334 8.04C36.6134 8.61333 36.4534 9.26 36.4534 9.98C36.4534 10.7 36.6134 11.3533 36.9334 11.94C37.2667 12.5267 37.7134 12.9933 38.2734 13.34C38.8334 13.6733 39.4534 13.84 40.1334 13.84C40.68 13.84 41.1934 13.7333 41.6734 13.52C42.1667 13.3067 42.6267 12.9933 43.0534 12.58L43.9734 13.58C43.44 14.0867 42.84 14.48 42.1734 14.76C41.5067 15.04 40.8134 15.18 40.0934 15.18ZM50.1143 15.18C49.1543 15.18 48.281 14.9533 47.4943 14.5C46.721 14.0333 46.101 13.4067 45.6343 12.62C45.181 11.8333 44.9543 10.9533 44.9543 9.98C44.9543 9.02 45.1743 8.15333 45.6143 7.38C46.0543 6.59333 46.6476 5.97333 47.3943 5.52C48.141 5.05333 48.9743 4.82 49.8943 4.82C50.7876 4.82 51.5876 5.05333 52.2943 5.52C53.0143 5.97333 53.581 6.59333 53.9943 7.38C54.421 8.15333 54.6343 9.02 54.6343 9.98V10.44H46.4143C46.4943 11.0933 46.701 11.68 47.0343 12.2C47.381 12.72 47.8276 13.1333 48.3743 13.44C48.921 13.7333 49.521 13.88 50.1743 13.88C50.6943 13.88 51.201 13.8 51.6943 13.64C52.1876 13.48 52.601 13.2533 52.9343 12.96L53.8543 13.94C53.2943 14.3533 52.7076 14.6667 52.0943 14.88C51.4943 15.08 50.8343 15.18 50.1143 15.18ZM46.4543 9.26H53.1543C53.0743 8.66 52.8743 8.12667 52.5543 7.66C52.2476 7.18 51.861 6.80667 51.3943 6.54C50.9276 6.26 50.4143 6.12 49.8543 6.12C49.281 6.12 48.7543 6.25333 48.2743 6.52C47.7943 6.78667 47.3943 7.16 47.0743 7.64C46.7543 8.10667 46.5476 8.64667 46.4543 9.26ZM51.5343 3.08L49.8543 1.48L48.1943 3.08H46.9943L49.0743 0.66H50.6743L52.7543 3.08H51.5343ZM65.7002 15.18C64.7402 15.18 63.8669 14.9533 63.0802 14.5C62.3069 14.0333 61.6869 13.4067 61.2202 12.62C60.7669 11.8333 60.5402 10.9533 60.5402 9.98C60.5402 9.02 60.7602 8.15333 61.2002 7.38C61.6402 6.59333 62.2336 5.97333 62.9802 5.52C63.7269 5.05333 64.5602 4.82 65.4802 4.82C66.3736 4.82 67.1736 5.05333 67.8802 5.52C68.6002 5.97333 69.1669 6.59333 69.5802 7.38C70.0069 8.15333 70.2202 9.02 70.2202 9.98V10.44H62.0002C62.0802 11.0933 62.2869 11.68 62.6202 12.2C62.9669 12.72 63.4136 13.1333 63.9602 13.44C64.5069 13.7333 65.1069 13.88 65.7602 13.88C66.2802 13.88 66.7869 13.8 67.2802 13.64C67.7736 13.48 68.1869 13.2533 68.5202 12.96L69.4402 13.94C68.8802 14.3533 68.2936 14.6667 67.6802 14.88C67.0802 15.08 66.4202 15.18 65.7002 15.18ZM62.0402 9.26H68.7402C68.6602 8.66 68.4602 8.12667 68.1402 7.66C67.8336 7.18 67.4469 6.80667 66.9802 6.54C66.5136 6.26 66.0002 6.12 65.4402 6.12C64.8669 6.12 64.3402 6.25333 63.8602 6.52C63.3802 6.78667 62.9802 7.16 62.6602 7.64C62.3402 8.10667 62.1336 8.64667 62.0402 9.26ZM75.587 15.2C74.7603 15.2 73.9803 15.0667 73.247 14.8C72.527 14.52 71.9003 14.1333 71.367 13.64L72.267 12.68C72.7336 13.1067 73.247 13.44 73.807 13.68C74.367 13.9067 74.9403 14.02 75.527 14.02C76.327 14.02 76.9803 13.8533 77.487 13.52C77.9936 13.1867 78.247 12.7533 78.247 12.22C78.247 11.78 78.0936 11.44 77.787 11.2C77.4936 10.9467 77.027 10.7733 76.387 10.68L74.647 10.44C73.647 10.2933 72.9003 9.99333 72.407 9.54C71.927 9.08667 71.687 8.47333 71.687 7.7C71.687 7.14 71.847 6.64 72.167 6.2C72.487 5.76 72.927 5.41333 73.487 5.16C74.0603 4.90667 74.7136 4.78 75.447 4.78C76.1803 4.78 76.867 4.88667 77.507 5.1C78.147 5.31333 78.7736 5.64667 79.387 6.1L78.607 7.1C78.047 6.71333 77.5003 6.43333 76.967 6.26C76.447 6.07333 75.9136 5.98 75.367 5.98C74.6736 5.98 74.1136 6.13333 73.687 6.44C73.2603 6.74667 73.047 7.14667 73.047 7.64C73.047 8.09333 73.1936 8.44 73.487 8.68C73.7803 8.90667 74.2536 9.06667 74.907 9.16L76.647 9.4C77.647 9.53333 78.3936 9.82667 78.887 10.28C79.3936 10.7333 79.647 11.3533 79.647 12.14C79.647 12.7133 79.467 13.2333 79.107 13.7C78.747 14.1667 78.2603 14.5333 77.647 14.8C77.047 15.0667 76.3603 15.2 75.587 15.2ZM85.0574 15.2C84.1908 15.2 83.5241 14.9933 83.0574 14.58C82.5908 14.1667 82.3574 13.5667 82.3574 12.78V6.24H80.1974V4.98H82.3574V2.44L83.8174 2.06V4.98H86.8374V6.24H83.8174V12.4C83.8174 12.9333 83.9374 13.32 84.1774 13.56C84.4174 13.7867 84.8108 13.9 85.3574 13.9C85.6374 13.9 85.8841 13.88 86.0974 13.84C86.3241 13.8 86.5641 13.7333 86.8174 13.64V14.94C86.5641 15.0333 86.2774 15.1 85.9574 15.14C85.6508 15.18 85.3508 15.2 85.0574 15.2ZM91.5821 15.18C90.8488 15.18 90.2021 15.0533 89.6421 14.8C89.0954 14.5467 88.6621 14.1933 88.3421 13.74C88.0354 13.2867 87.8821 12.76 87.8821 12.16C87.8821 11.2133 88.2421 10.4667 88.9621 9.92C89.6821 9.37333 90.6554 9.1 91.8821 9.1C92.9621 9.1 93.9421 9.32667 94.8221 9.78V8.46C94.8221 7.66 94.5954 7.06 94.1421 6.66C93.6888 6.24667 93.0288 6.04 92.1621 6.04C91.6688 6.04 91.1688 6.11333 90.6621 6.26C90.1688 6.39333 89.6221 6.61333 89.0221 6.92L88.4621 5.78C89.1821 5.43333 89.8488 5.18 90.4621 5.02C91.0754 4.86 91.6888 4.78 92.3021 4.78C93.5688 4.78 94.5421 5.08 95.2221 5.68C95.9154 6.28 96.2621 7.14 96.2621 8.26V15H94.8221V14.02C94.3688 14.4067 93.8688 14.7 93.3221 14.9C92.7888 15.0867 92.2088 15.18 91.5821 15.18ZM89.3021 12.12C89.3021 12.68 89.5354 13.14 90.0021 13.5C90.4821 13.8467 91.0954 14.02 91.8421 14.02C92.4421 14.02 92.9888 13.9267 93.4821 13.74C93.9754 13.5533 94.4221 13.26 94.8221 12.86V10.98C94.4088 10.7 93.9688 10.5 93.5021 10.38C93.0354 10.2467 92.5088 10.18 91.9221 10.18C91.1221 10.18 90.4821 10.36 90.0021 10.72C89.5354 11.0667 89.3021 11.5333 89.3021 12.12ZM90.8621 3L92.7421 0.68H94.6421L92.1621 3H90.8621ZM103.031 15V4.98H104.511V6.16C105.298 5.24 106.351 4.78 107.671 4.78C108.431 4.78 109.098 4.94667 109.671 5.28C110.258 5.6 110.711 6.05333 111.031 6.64C111.365 7.21333 111.531 7.88667 111.531 8.66V15H110.071V8.96C110.071 8.06667 109.818 7.36667 109.311 6.86C108.818 6.34 108.138 6.08 107.271 6.08C106.671 6.08 106.138 6.21333 105.671 6.48C105.205 6.74667 104.818 7.12667 104.511 7.62V15H103.031ZM118.708 15.18C117.748 15.18 116.875 14.9533 116.088 14.5C115.315 14.0333 114.695 13.4067 114.228 12.62C113.775 11.8333 113.548 10.9533 113.548 9.98C113.548 9.02 113.768 8.15333 114.208 7.38C114.648 6.59333 115.241 5.97333 115.988 5.52C116.735 5.05333 117.568 4.82 118.488 4.82C119.381 4.82 120.181 5.05333 120.888 5.52C121.608 5.97333 122.175 6.59333 122.588 7.38C123.015 8.15333 123.228 9.02 123.228 9.98V10.44H115.008C115.088 11.0933 115.295 11.68 115.628 12.2C115.975 12.72 116.421 13.1333 116.968 13.44C117.515 13.7333 118.115 13.88 118.768 13.88C119.288 13.88 119.795 13.8 120.288 13.64C120.781 13.48 121.195 13.2533 121.528 12.96L122.448 13.94C121.888 14.3533 121.301 14.6667 120.688 14.88C120.088 15.08 119.428 15.18 118.708 15.18ZM115.048 9.26H121.748C121.668 8.66 121.468 8.12667 121.148 7.66C120.841 7.18 120.455 6.80667 119.988 6.54C119.521 6.26 119.008 6.12 118.448 6.12C117.875 6.12 117.348 6.25333 116.868 6.52C116.388 6.78667 115.988 7.16 115.668 7.64C115.348 8.10667 115.141 8.64667 115.048 9.26ZM125.297 15V0.999999L126.777 0.66V15H125.297ZM134.001 15.18C133.041 15.18 132.168 14.9533 131.381 14.5C130.608 14.0333 129.988 13.4067 129.521 12.62C129.068 11.8333 128.841 10.9533 128.841 9.98C128.841 9.02 129.061 8.15333 129.501 7.38C129.941 6.59333 130.534 5.97333 131.281 5.52C132.028 5.05333 132.861 4.82 133.781 4.82C134.674 4.82 135.474 5.05333 136.181 5.52C136.901 5.97333 137.468 6.59333 137.881 7.38C138.308 8.15333 138.521 9.02 138.521 9.98V10.44H130.301C130.381 11.0933 130.588 11.68 130.921 12.2C131.268 12.72 131.714 13.1333 132.261 13.44C132.808 13.7333 133.408 13.88 134.061 13.88C134.581 13.88 135.088 13.8 135.581 13.64C136.074 13.48 136.488 13.2533 136.821 12.96L137.741 13.94C137.181 14.3533 136.594 14.6667 135.981 14.88C135.381 15.08 134.721 15.18 134.001 15.18ZM130.341 9.26H137.041C136.961 8.66 136.761 8.12667 136.441 7.66C136.134 7.18 135.748 6.80667 135.281 6.54C134.814 6.26 134.301 6.12 133.741 6.12C133.168 6.12 132.641 6.25333 132.161 6.52C131.681 6.78667 131.281 7.16 130.961 7.64C130.641 8.10667 130.434 8.64667 130.341 9.26Z" fill="#838383"/>
<path d="M146.407 0.779999C147.3 0.779999 148.034 0.96 148.607 1.32C149.18 1.68 149.554 2.17333 149.727 2.8C149.9 3.42667 149.847 4.14 149.567 4.94L148.887 6.76C148.647 7.41333 148.647 7.96 148.887 8.4C149.14 8.82667 149.587 9.04 150.227 9.04H151.887V11.08H150.227C149.587 11.08 149.14 11.3 148.887 11.74C148.647 12.1667 148.647 12.7067 148.887 13.36L149.567 15.18C149.847 15.98 149.9 16.6933 149.727 17.32C149.554 17.9467 149.18 18.44 148.607 18.8C148.034 19.16 147.3 19.34 146.407 19.34C146.06 19.34 145.727 19.3133 145.407 19.26C145.087 19.2067 144.76 19.12 144.427 19L144.827 17.04C145.027 17.1067 145.227 17.16 145.427 17.2C145.64 17.24 145.86 17.26 146.087 17.26C146.607 17.2467 146.967 17.0533 147.167 16.68C147.367 16.3067 147.367 15.84 147.167 15.28L146.427 13.28C146.16 12.52 146.214 11.84 146.587 11.24C146.96 10.64 147.56 10.2467 148.387 10.06C147.56 9.87333 146.96 9.48 146.587 8.88C146.214 8.28 146.16 7.6 146.427 6.84L147.167 4.84C147.367 4.28 147.367 3.81333 147.167 3.44C146.967 3.06667 146.607 2.87333 146.087 2.86C145.86 2.86 145.64 2.88 145.427 2.92C145.227 2.96 145.027 3.01333 144.827 3.08L144.427 1.12C144.76 1 145.087 0.913333 145.407 0.86C145.727 0.806666 146.06 0.779999 146.407 0.779999Z" fill="url(#paint1_linear_56_88)"/>
<defs>
<linearGradient id="paint0_linear_56_88" x1="76" y1="-22" x2="76" y2="38" gradientUnits="userSpaceOnUse">
<stop stop-color="#EEF305"/>
<stop offset="1" stop-color="#4D7C30"/>
</linearGradient>
<linearGradient id="paint1_linear_56_88" x1="76" y1="-22" x2="76" y2="38" gradientUnits="userSpaceOnUse">
<stop stop-color="#F7FF00"/>
<stop offset="1" stop-color="#57933A"/>
</linearGradient>
</defs>
</svg>
