<svg width="100" height="20" viewBox="0 0 100 20" fill="none" xmlns="http://www.w3.org/2000/svg">
<path d="M5.71211 19.36C4.81878 19.36 4.08544 19.18 3.51211 18.82C2.93878 18.46 2.56544 17.9667 2.39211 17.34C2.21878 16.7133 2.27211 16 2.55211 15.2L3.23211 13.38C3.47211 12.7267 3.46544 12.1867 3.21211 11.76C2.97211 11.32 2.53211 11.1 1.89211 11.1H0.232109V9.06H1.89211C2.53211 9.06 2.97211 8.84667 3.21211 8.42C3.46544 7.98 3.47211 7.43333 3.23211 6.78L2.55211 4.96C2.27211 4.16 2.21878 3.44667 2.39211 2.82C2.56544 2.19333 2.93878 1.7 3.51211 1.34C4.08544 0.979999 4.81878 0.799999 5.71211 0.799999C6.05878 0.799999 6.39211 0.826666 6.71211 0.879999C7.03211 0.933333 7.35878 1.02 7.69211 1.14L7.29211 3.1C7.09211 3.03333 6.88544 2.98 6.67211 2.94C6.47211 2.9 6.25878 2.88 6.03211 2.88C5.51211 2.89333 5.15211 3.08667 4.95211 3.46C4.75211 3.83333 4.75211 4.3 4.95211 4.86L5.69211 6.86C5.95878 7.62 5.90544 8.3 5.53211 8.9C5.15878 9.5 4.55878 9.89333 3.73211 10.08C4.55878 10.2667 5.15878 10.66 5.53211 11.26C5.90544 11.86 5.95878 12.54 5.69211 13.3L4.95211 15.3C4.75211 15.86 4.75211 16.3267 4.95211 16.7C5.15211 17.0733 5.51211 17.2667 6.03211 17.28C6.25878 17.28 6.47211 17.26 6.67211 17.22C6.88544 17.18 7.09211 17.1267 7.29211 17.06L7.69211 19.02C7.35878 19.14 7.03211 19.2267 6.71211 19.28C6.39211 19.3333 6.05878 19.36 5.71211 19.36ZM94.2937 0.779999C95.187 0.779999 95.9203 0.96 96.4937 1.32C97.067 1.68 97.4403 2.17333 97.6137 2.8C97.787 3.42667 97.7337 4.14 97.4537 4.94L96.7737 6.76C96.5337 7.41333 96.5337 7.96 96.7737 8.4C97.027 8.82667 97.4737 9.04 98.1137 9.04H99.7737V11.08H98.1137C97.4737 11.08 97.027 11.3 96.7737 11.74C96.5337 12.1667 96.5337 12.7067 96.7737 13.36L97.4537 15.18C97.7337 15.98 97.787 16.6933 97.6137 17.32C97.4403 17.9467 97.067 18.44 96.4937 18.8C95.9203 19.16 95.187 19.34 94.2937 19.34C93.947 19.34 93.6137 19.3133 93.2937 19.26C92.9737 19.2067 92.647 19.12 92.3137 19L92.7137 17.04C92.9137 17.1067 93.1137 17.16 93.3137 17.2C93.527 17.24 93.747 17.26 93.9737 17.26C94.4937 17.2467 94.8537 17.0533 95.0537 16.68C95.2537 16.3067 95.2537 15.84 95.0537 15.28L94.3137 13.28C94.047 12.52 94.1003 11.84 94.4737 11.24C94.847 10.64 95.447 10.2467 96.2737 10.06C95.447 9.87333 94.847 9.48 94.4737 8.88C94.1003 8.28 94.047 7.6 94.3137 6.84L95.0537 4.84C95.2537 4.28 95.2537 3.81333 95.0537 3.44C94.8537 3.06667 94.4937 2.87333 93.9737 2.86C93.747 2.86 93.527 2.88 93.3137 2.92C93.1137 2.96 92.9137 3.01333 92.7137 3.08L92.3137 1.12C92.647 1 92.9737 0.913333 93.2937 0.86C93.6137 0.806666 93.947 0.779999 94.2937 0.779999Z" fill="url(#paint0_linear_22_294)"/>
<path d="M14.4463 15.18C13.4863 15.18 12.613 14.9533 11.8263 14.5C11.053 14.0333 10.433 13.4067 9.96633 12.62C9.51299 11.8333 9.28633 10.9533 9.28633 9.98C9.28633 9.02 9.50633 8.15333 9.94633 7.38C10.3863 6.59333 10.9797 5.97333 11.7263 5.52C12.473 5.05333 13.3063 4.82 14.2263 4.82C15.1197 4.82 15.9197 5.05333 16.6263 5.52C17.3463 5.97333 17.913 6.59333 18.3263 7.38C18.753 8.15333 18.9663 9.02 18.9663 9.98V10.44H10.7463C10.8263 11.0933 11.033 11.68 11.3663 12.2C11.713 12.72 12.1597 13.1333 12.7063 13.44C13.253 13.7333 13.853 13.88 14.5063 13.88C15.0263 13.88 15.533 13.8 16.0263 13.64C16.5197 13.48 16.933 13.2533 17.2663 12.96L18.1863 13.94C17.6263 14.3533 17.0397 14.6667 16.4263 14.88C15.8263 15.08 15.1663 15.18 14.4463 15.18ZM10.7863 9.26H17.4863C17.4063 8.66 17.2063 8.12667 16.8863 7.66C16.5797 7.18 16.193 6.80667 15.7263 6.54C15.2597 6.26 14.7463 6.12 14.1863 6.12C13.613 6.12 13.0863 6.25333 12.6063 6.52C12.1263 6.78667 11.7263 7.16 11.4063 7.64C11.0863 8.10667 10.8797 8.64667 10.7863 9.26ZM21.0354 15V4.98H22.5154V6.08C23.2754 5.21333 24.2554 4.78 25.4554 4.78C26.1621 4.78 26.7887 4.94667 27.3354 5.28C27.8821 5.6 28.3087 6.04 28.6154 6.6C29.0287 5.98667 29.5221 5.53333 30.0954 5.24C30.6687 4.93333 31.3221 4.78 32.0554 4.78C32.7887 4.78 33.4287 4.94667 33.9754 5.28C34.5221 5.6 34.9487 6.05333 35.2554 6.64C35.5754 7.21333 35.7354 7.88667 35.7354 8.66V15H34.2754V8.96C34.2754 8.06667 34.0421 7.36667 33.5754 6.86C33.1087 6.34 32.4754 6.08 31.6754 6.08C31.1287 6.08 30.6287 6.22 30.1754 6.5C29.7221 6.76667 29.3354 7.17333 29.0154 7.72C29.0421 7.86667 29.0621 8.02 29.0754 8.18C29.1021 8.32667 29.1154 8.48667 29.1154 8.66V15H27.6554V8.96C27.6554 8.06667 27.4221 7.36667 26.9554 6.86C26.4887 6.34 25.8621 6.08 25.0754 6.08C24.5421 6.08 24.0554 6.20667 23.6154 6.46C23.1887 6.7 22.8221 7.06 22.5154 7.54V15H21.0354ZM42.5198 15V0.999999L43.9998 0.66V6.04C44.8531 5.22667 45.9264 4.82 47.2198 4.82C48.1664 4.82 49.0198 5.05333 49.7798 5.52C50.5398 5.97333 51.1398 6.58667 51.5798 7.36C52.0331 8.13333 52.2598 9.00667 52.2598 9.98C52.2598 10.9533 52.0331 11.8333 51.5798 12.62C51.1398 13.3933 50.5398 14.0133 49.7798 14.48C49.0198 14.9333 48.1598 15.16 47.1998 15.16C46.6131 15.16 46.0398 15.06 45.4798 14.86C44.9331 14.66 44.4331 14.3733 43.9798 14V15H42.5198ZM47.0798 13.86C47.7864 13.86 48.4198 13.6933 48.9798 13.36C49.5398 13.0133 49.9798 12.5533 50.2998 11.98C50.6331 11.3933 50.7998 10.7333 50.7998 10C50.7998 9.26667 50.6331 8.60667 50.2998 8.02C49.9798 7.43333 49.5398 6.97333 48.9798 6.64C48.4198 6.29333 47.7864 6.12 47.0798 6.12C46.4531 6.12 45.8664 6.24667 45.3198 6.5C44.7864 6.74 44.3464 7.08 43.9998 7.52V12.48C44.3464 12.9067 44.7931 13.2467 45.3398 13.5C45.8864 13.74 46.4664 13.86 47.0798 13.86ZM54.3166 15V4.98H55.7966V6.4C56.1033 5.88 56.49 5.48 56.9566 5.2C57.4366 4.90667 57.9833 4.76 58.5966 4.76C58.9433 4.76 59.2566 4.80667 59.5366 4.9V6.26C59.3633 6.19333 59.19 6.14667 59.0166 6.12C58.8433 6.09333 58.67 6.08 58.4966 6.08C57.8833 6.08 57.3433 6.26 56.8766 6.62C56.4233 6.96667 56.0633 7.47333 55.7966 8.14V15H54.3166ZM65.2276 15.18C64.2676 15.18 63.3942 14.9533 62.6076 14.5C61.8342 14.0333 61.2142 13.4067 60.7476 12.62C60.2942 11.8333 60.0676 10.9533 60.0676 9.98C60.0676 9.02 60.2876 8.15333 60.7276 7.38C61.1676 6.59333 61.7609 5.97333 62.5076 5.52C63.2542 5.05333 64.0876 4.82 65.0076 4.82C65.9009 4.82 66.7009 5.05333 67.4076 5.52C68.1276 5.97333 68.6942 6.59333 69.1076 7.38C69.5342 8.15333 69.7476 9.02 69.7476 9.98V10.44H61.5276C61.6076 11.0933 61.8142 11.68 62.1476 12.2C62.4942 12.72 62.9409 13.1333 63.4876 13.44C64.0342 13.7333 64.6342 13.88 65.2876 13.88C65.8076 13.88 66.3142 13.8 66.8076 13.64C67.3009 13.48 67.7142 13.2533 68.0476 12.96L68.9676 13.94C68.4076 14.3533 67.8209 14.6667 67.2076 14.88C66.6076 15.08 65.9476 15.18 65.2276 15.18ZM61.5676 9.26H68.2676C68.1876 8.66 67.9876 8.12667 67.6676 7.66C67.3609 7.18 66.9742 6.80667 66.5076 6.54C66.0409 6.26 65.5276 6.12 64.9676 6.12C64.3942 6.12 63.8676 6.25333 63.3876 6.52C62.9076 6.78667 62.5076 7.16 62.1876 7.64C61.8676 8.10667 61.6609 8.64667 61.5676 9.26ZM74.7037 15L70.3637 4.98H72.0037L75.4237 13.08L78.8437 4.98H80.4237L76.1037 15H74.7037ZM86.1846 15.18C85.2246 15.18 84.3513 14.9533 83.5646 14.5C82.7913 14.0333 82.1713 13.4067 81.7046 12.62C81.2513 11.8333 81.0246 10.9533 81.0246 9.98C81.0246 9.02 81.2446 8.15333 81.6846 7.38C82.1246 6.59333 82.7179 5.97333 83.4646 5.52C84.2113 5.05333 85.0446 4.82 85.9646 4.82C86.8579 4.82 87.6579 5.05333 88.3646 5.52C89.0846 5.97333 89.6513 6.59333 90.0646 7.38C90.4913 8.15333 90.7046 9.02 90.7046 9.98V10.44H82.4846C82.5646 11.0933 82.7713 11.68 83.1046 12.2C83.4513 12.72 83.8979 13.1333 84.4446 13.44C84.9913 13.7333 85.5913 13.88 86.2446 13.88C86.7646 13.88 87.2713 13.8 87.7646 13.64C88.2579 13.48 88.6713 13.2533 89.0046 12.96L89.9246 13.94C89.3646 14.3533 88.7779 14.6667 88.1646 14.88C87.5646 15.08 86.9046 15.18 86.1846 15.18ZM82.5246 9.26H89.2246C89.1446 8.66 88.9446 8.12667 88.6246 7.66C88.3179 7.18 87.9313 6.80667 87.4646 6.54C86.9979 6.26 86.4846 6.12 85.9246 6.12C85.3513 6.12 84.8246 6.25333 84.3446 6.52C83.8646 6.78667 83.4646 7.16 83.1446 7.64C82.8246 8.10667 82.6179 8.64667 82.5246 9.26Z" fill="#838383"/>
<defs>
<linearGradient id="paint0_linear_22_294" x1="50" y1="-22" x2="50" y2="38" gradientUnits="userSpaceOnUse">
<stop stop-color="#6C01F5"/>
<stop offset="1" stop-color="#312FAF"/>
</linearGradient>
</defs>
</svg>
