<svg width="28" height="26" viewBox="0 0 28 26" fill="none" xmlns="http://www.w3.org/2000/svg">
<path d="M13.8438 25.5L19.5 10.5H22.0625L27.875 25.5H25.1562L23.875 21.5625H17.875L16.4062 25.5H13.8438ZM18.5625 19.375H23L20.8125 13.3125H20.75L18.5625 19.375ZM4 21.75L2.28125 20.0312L8.65625 13.6562C7.86458 12.7396 7.16146 11.8177 6.54688 10.8906C5.93229 9.96354 5.39583 9 4.9375 8H7.65625C8.01042 8.6875 8.40104 9.33854 8.82812 9.95312C9.25521 10.5677 9.73958 11.1979 10.2812 11.8438C11.2188 10.8646 12 9.84896 12.625 8.79688C13.25 7.74479 13.7812 6.64583 14.2188 5.5H0.25V3H9V0.5H11.5V3H20.25V5.5H16.7188C16.2604 6.9375 15.651 8.34896 14.8906 9.73438C14.1302 11.1198 13.1979 12.4375 12.0938 13.6875L15.1562 16.7812L14.2188 19.3125L10.25 15.5L4 21.75Z" fill="#07F8B1"/>
</svg>
